<svg xmlns="http://www.w3.org/2000/svg" width="805" height="600"><rect width="805" height="600" x="0" y="0" fill="#FFFFFF" id="background"/><g id="viz"><g transform="translate(0,0)"><g transform="translate(10,20)"><g><path fill="#1f77b4" d="M0,258.15999999999997C39.25,258.15999999999997,39.25,199.02142105263152,78.5,199.02142105263152C117.75,199.02142105263152,117.75,139.00094611859467,157,139.00094611859467C196.25,139.00094611859467,196.25,108.44099574638616,235.5,108.44099574638616C274.75,108.44099574638616,274.75,205.31006299150553,314,205.31006299150553C353.25,205.31006299150553,353.25,201.53067613019164,392.5,201.53067613019164C431.75,201.53067613019164,431.75,203.49508557901055,471,203.49508557901055C510.25,203.49508557901055,510.25,191.2489317328567,549.5,191.2489317328567C588.75,191.2489317328567,588.75,97.05871168395693,628,97.05871168395693C667.25,97.05871168395693,667.25,85.60957782568921,706.5,85.60957782568921C745.75,85.60957782568921,745.75,55.51304890006947,785,55.51304890006947L785,181.51304890006946C745.75,181.51304890006946,745.75,186.96957782568924,706.5,186.96957782568924C667.25,186.96957782568924,667.25,164.81871168395693,628,164.81871168395693C588.75,164.81871168395693,588.75,259.5689317328567,549.5,259.5689317328567C510.25,259.5689317328567,510.25,260.6150855790105,471,260.6150855790105C431.75,260.6150855790105,431.75,265.9306761301916,392.5,265.9306761301916C353.25,265.9306761301916,353.25,276.9900629915055,314,276.9900629915055C274.75,276.9900629915055,274.75,256.28099574638617,235.5,256.28099574638617C196.25,256.28099574638617,196.25,260.5209461185946,157,260.5209461185946C117.75,260.5209461185946,117.75,215.26142105263153,78.5,215.26142105263153C39.25,215.26142105263153,39.25,327.59999999999997,0,327.59999999999997Z"><title>celular</title></path><path fill="#ff7f0e" d="M0,258.15999999999997C39.25,258.15999999999997,39.25,100.46142105263156,78.5,100.46142105263156C117.75,100.46142105263156,117.75,81.88094611859461,157,81.88094611859461C196.25,81.88094611859461,196.25,81.0009957463862,235.5,81.0009957463862C274.75,81.0009957463862,274.75,198.59006299150553,314,198.59006299150553C353.25,198.59006299150553,353.25,118.09067613019162,392.5,118.09067613019162C431.75,118.09067613019162,431.75,118.37508557901052,471,118.37508557901052C510.25,118.37508557901052,510.25,157.64893173285674,549.5,157.64893173285674C588.75,157.64893173285674,588.75,9.138711683956915,628,9.138711683956915C667.25,9.138711683956915,667.25,85.04957782568921,706.5,85.04957782568921C745.75,85.04957782568921,745.75,55.51304890006947,785,55.51304890006947L785,55.51304890006947C745.75,55.51304890006947,745.75,85.60957782568921,706.5,85.60957782568921C667.25,85.60957782568921,667.25,97.05871168395693,628,97.05871168395693C588.75,97.05871168395693,588.75,191.2489317328567,549.5,191.2489317328567C510.25,191.2489317328567,510.25,203.49508557901055,471,203.49508557901055C431.75,203.49508557901055,431.75,201.53067613019164,392.5,201.53067613019164C353.25,201.53067613019164,353.25,205.31006299150553,314,205.31006299150553C274.75,205.31006299150553,274.75,108.44099574638616,235.5,108.44099574638616C196.25,108.44099574638616,196.25,139.00094611859467,157,139.00094611859467C117.75,139.00094611859467,117.75,199.02142105263152,78.5,199.02142105263152C39.25,199.02142105263152,39.25,258.15999999999997,0,258.15999999999997Z"><title>pc_personal</title></path><path fill="#2ca02c" d="M0,327.59999999999997C39.25,327.59999999999997,39.25,215.26142105263153,78.5,215.26142105263153C117.75,215.26142105263153,117.75,260.5209461185946,157,260.5209461185946C196.25,260.5209461185946,196.25,256.28099574638617,235.5,256.28099574638617C274.75,256.28099574638617,274.75,276.9900629915055,314,276.9900629915055C353.25,276.9900629915055,353.25,265.9306761301916,392.5,265.9306761301916C431.75,265.9306761301916,431.75,260.6150855790105,471,260.6150855790105C510.25,260.6150855790105,510.25,259.5689317328567,549.5,259.5689317328567C588.75,259.5689317328567,588.75,164.81871168395693,628,164.81871168395693C667.25,164.81871168395693,667.25,186.96957782568924,706.5,186.96957782568924C745.75,186.96957782568924,745.75,181.51304890006946,785,181.51304890006946L785,462.0730489000694C745.75,462.0730489000694,745.75,440.6495778256892,706.5,440.6495778256892C667.25,440.6495778256892,667.25,467.21871168395694,628,467.21871168395694C588.75,467.21871168395694,588.75,259.5689317328567,549.5,259.5689317328567C510.25,259.5689317328567,510.25,260.6150855790105,471,260.6150855790105C431.75,260.6150855790105,431.75,501.69067613019166,392.5,501.69067613019166C353.25,501.69067613019166,353.25,456.7500629915055,314,456.7500629915055C274.75,456.7500629915055,274.75,532.3609957463863,235.5,532.3609957463863C196.25,532.3609957463863,196.25,506.3609461185946,157,506.3609461185946C117.75,506.3609461185946,117.75,526.0614210526315,78.5,526.0614210526315C39.25,526.0614210526315,39.25,336,0,336Z"><title>pc_trabajo</title></path></g><g id="xAxis" transform="translate(0,560)" fill="none" font-size="10" font-family="sans-serif" text-anchor="middle"><path class="domain" stroke="currentColor" d="M0.5,0.5H785.5"/><g class="tick" opacity="1" transform="translate(0.5,0)"><line stroke="currentColor" y2="6"/><text fill="currentColor" y="9" dy="0.71em">Apr 12</text></g><g class="tick" opacity="1" transform="translate(79,0)"><line stroke="currentColor" y2="6"/><text fill="currentColor" y="9" dy="0.71em">Mon 13</text></g><g class="tick" opacity="1" transform="translate(157.5,0)"><line stroke="currentColor" y2="6"/><text fill="currentColor" y="9" dy="0.71em">Tue 14</text></g><g class="tick" opacity="1" transform="translate(236,0)"><line stroke="currentColor" y2="6"/><text fill="currentColor" y="9" dy="0.71em">Wed 15</text></g><g class="tick" opacity="1" transform="translate(314.5,0)"><line stroke="currentColor" y2="6"/><text fill="currentColor" y="9" dy="0.71em">Thu 16</text></g><g class="tick" opacity="1" transform="translate(393,0)"><line stroke="currentColor" y2="6"/><text fill="currentColor" y="9" dy="0.71em">Fri 17</text></g><g class="tick" opacity="1" transform="translate(471.5,0)"><line stroke="currentColor" y2="6"/><text fill="currentColor" y="9" dy="0.71em">Sat 18</text></g><g class="tick" opacity="1" transform="translate(550,0)"><line stroke="currentColor" y2="6"/><text fill="currentColor" y="9" dy="0.71em">Apr 19</text></g><g class="tick" opacity="1" transform="translate(628.5,0)"><line stroke="currentColor" y2="6"/><text fill="currentColor" y="9" dy="0.71em">Mon 20</text></g><g class="tick" opacity="1" transform="translate(707,0)"><line stroke="currentColor" y2="6"/><text fill="currentColor" y="9" dy="0.71em">Tue 21</text></g><g class="tick" opacity="1" transform="translate(785.5,0)"><line stroke="currentColor" y2="6"/><text fill="currentColor" y="9" dy="0.71em">Wed 22</text></g></g><text y="556" x="785" text-anchor="end" style="font-family: Arial, sans-serif; font-size: 12px; fill: rgb(123, 123, 123); font-weight: bold;">fecha</text><text x="4" text-anchor="start" dominant-baseline="hanging" style="font-family: Arial, sans-serif; font-size: 12px; fill: rgb(123, 123, 123); font-weight: bold;">tiempo_en_pantalla</text><g id="labels"><text x="235.5" y="182.36099574638615" text-anchor="middle" alignment-baseline="middle" style="font-family: Arial, sans-serif; font-size: 10px; fill: black; font-weight: bold;">celular</text><text x="78.5" y="149.74142105263155" text-anchor="middle" alignment-baseline="middle" style="font-family: Arial, sans-serif; font-size: 10px; fill: black; font-weight: bold;">pc_personal</text><text x="78.5" y="370.66142105263157" text-anchor="middle" alignment-baseline="middle" style="font-family: Arial, sans-serif; font-size: 10px; fill: black; font-weight: bold;">pc_trabajo</text></g></g><text x="4" y="4" style="font-family: Arial, sans-serif; font-size: 12px; fill: black; font-weight: bold; dominant-baseline: hanging;"/></g></g></svg>