<svg xmlns="http://www.w3.org/2000/svg" width="805" height="600"><rect width="805" height="600" x="0" y="0" fill="#FFFFFF" id="background"/><g id="viz"><g transform="translate(0,0)"><g transform="translate(10,20)"><g><path fill="#9467bd" d="M0,337.4633252604833C8.527022201059461,337.4633252604833,8.527022201059461,334.46842392063337,17.054044402118922,334.46842392063337C25.581066603178385,334.46842392063337,25.581066603178385,335.68934930591666,34.108088804237845,335.68934930591666C42.635111005297304,335.68934930591666,42.635111005297304,336.5657961582,51.162133206356756,336.5657961582C59.712517112076654,336.5657961582,59.712517112076654,347.9023866966667,68.26290101779655,347.9023866966667C76.78992321885602,347.9023866966667,76.78992321885602,341.10803539166665,85.31694541991548,341.10803539166665C93.84396762097495,341.10803539166665,93.84396762097495,327.06941171333335,102.37098982203442,327.06941171333335C110.89801202309387,327.06941171333335,110.89801202309387,324.0884219626667,119.42503422415332,324.0884219626667C127.97541812987322,324.0884219626667,127.97541812987322,320.1068364083334,136.5258020355931,320.1068364083334C145.05282423665255,320.1068364083334,145.05282423665255,304.3434917504334,153.57984643771204,304.3434917504334C162.10686863877152,304.3434917504334,162.10686863877152,284.9291833221166,170.63389083983097,284.9291833221166C179.16091304089042,284.9291833221166,179.16091304089042,267.56696620033335,187.6879352419499,267.56696620033335C196.2383191476698,267.56696620033335,196.2383191476698,267.23496996233337,204.7887030533897,267.23496996233337C213.31572525444915,267.23496996233337,213.31572525444915,270.24918915283337,221.8427474555086,270.24918915283337C230.36976965656805,270.24918915283337,230.36976965656805,269.91775211006666,238.89679185762753,269.91775211006666C247.423814058687,269.91775211006666,247.423814058687,264.11346392071664,255.95083625974644,264.11346392071664C264.5002467611055,264.11346392071664,264.5002467611055,267.95869275,273.04965726246456,267.95869275C281.576679463524,267.95869275,281.576679463524,281.83706605215,290.10370166458347,281.83706605215C298.63072386564295,281.83706605215,298.63072386564295,309.2178534767,307.1577460667024,309.2178534767C315.68476826776185,309.2178534767,315.68476826776185,326.63842107703323,324.21179046882133,326.63842107703323C332.76217437454125,326.63842107703323,332.76217437454125,354.68015206213335,341.3125582802611,354.68015206213335C349.8405538856814,354.68015206213335,349.8405538856814,392.0089324103167,358.36854949110176,392.0089324103167C366.8955716921612,392.0089324103167,366.8955716921612,421.70594444848336,375.42259389322066,421.70594444848336C383.94961609428015,421.70594444848336,383.94961609428015,438.63063326786664,392.47663829533957,438.63063326786664C401.0270222010595,438.63063326786664,401.0270222010595,445.8473241306,409.5774061067794,445.8473241306C418.1044283078388,445.8473241306,418.1044283078388,475.47617874061666,426.6314505088983,475.47617874061666C435.1584727099578,475.47617874061666,435.1584727099578,501.3814169620666,443.6854949110172,501.3814169620666C452.2125171120766,501.3814169620666,452.2125171120766,506.2547128526651,460.7395393131361,506.2547128526651C469.289923218856,506.2547128526651,469.289923218856,499.26882387341163,477.84030712457593,499.26882387341163C486.3673293256354,499.26882387341163,486.3673293256354,482.2077757992833,494.89435152669483,482.2077757992833C503.42137372775426,482.2077757992833,503.42137372775426,468.65680330093335,511.94839592881374,468.65680330093335C520.4754181298732,468.65680330093335,520.4754181298732,474.17638634912004,529.0024403309327,474.17638634912004C537.5528242366526,474.17638634912004,537.5528242366526,467.29395164502165,546.1032081423724,467.29395164502165C554.630230343432,467.29395164502165,554.630230343432,453.87191146343673,563.1572525444915,453.87191146343673C571.684274745551,453.87191146343673,571.684274745551,433.1604952143233,580.2112969466103,433.1604952143233C588.7373457433089,433.1604952143233,588.7373457433089,401.5630315128134,597.2633945400075,401.5630315128134C605.8137784457274,401.5630315128134,605.8137784457274,388.872826666835,614.3641623514474,388.872826666835C622.8921579568677,388.872826666835,622.8921579568677,375.9378131186767,631.420153562288,375.9378131186767C639.9471757633474,375.9378131186767,639.9471757633474,374.61722678396336,648.4741979644069,374.61722678396336C657.0012201654663,374.61722678396336,657.0012201654663,371.14180278390836,665.5282423665258,371.14180278390836C674.0786262722456,371.14180278390836,674.0786262722456,370.07396199712167,682.6290101779656,370.07396199712167C691.156032379025,370.07396199712167,691.156032379025,364.3473136677383,699.6830545800844,364.3473136677383C708.2100767811439,364.3473136677383,708.2100767811439,364.45016391035006,716.7370989822035,364.45016391035006C725.2641211832629,364.45016391035006,725.2641211832629,374.183054699545,733.7911433843224,374.183054699545C742.3415272900422,374.183054699545,742.3415272900422,387.0381985994767,750.8919111957622,387.0381985994767C759.4189333968216,387.0381985994767,759.4189333968216,396.9530834273783,767.945955597881,396.9530834273783C776.4729777989405,396.9530834273783,776.4729777989405,409.6351174197334,785,409.6351174197334L785,409.6351174197334C776.4729777989405,409.6351174197334,776.4729777989405,396.9530834273783,767.945955597881,396.9530834273783C759.4189333968216,396.9530834273783,759.4189333968216,387.0381985994767,750.8919111957622,387.0381985994767C742.3415272900422,387.0381985994767,742.3415272900422,374.183054699545,733.7911433843224,374.183054699545C725.2641211832629,374.183054699545,725.2641211832629,364.45016391035006,716.7370989822035,364.45016391035006C708.2100767811439,364.45016391035006,708.2100767811439,364.3473136677383,699.6830545800844,364.3473136677383C691.156032379025,364.3473136677383,691.156032379025,370.07396199712167,682.6290101779656,370.07396199712167C674.0786262722456,370.07396199712167,674.0786262722456,371.14180278390836,665.5282423665258,371.14180278390836C657.0012201654663,371.14180278390836,657.0012201654663,374.61722678396336,648.4741979644069,374.61722678396336C639.9471757633474,374.61722678396336,639.9471757633474,375.9378131186767,631.420153562288,375.9378131186767C622.8921579568677,375.9378131186767,622.8921579568677,388.872826666835,614.3641623514474,388.872826666835C605.8137784457274,388.872826666835,605.8137784457274,401.58796751927,597.2633945400075,401.58796751927C588.7373457433089,401.58796751927,588.7373457433089,433.24682415788664,580.2112969466103,433.24682415788664C571.684274745551,433.24682415788664,571.684274745551,453.98139420650335,563.1572525444915,453.98139420650335C554.630230343432,453.98139420650335,554.630230343432,467.694083867255,546.1032081423724,467.694083867255C537.5528242366526,467.694083867255,537.5528242366526,474.92481578798674,529.0024403309327,474.92481578798674C520.4754181298732,474.92481578798674,520.4754181298732,472.1614346759334,511.94839592881374,472.1614346759334C503.42137372775426,472.1614346759334,503.42137372775426,489.16456420428335,494.89435152669483,489.16456420428335C486.3673293256354,489.16456420428335,486.3673293256354,511.509371145745,477.84030712457593,511.509371145745C469.289923218856,511.509371145745,469.289923218856,528.099876022635,460.7395393131361,528.099876022635C452.2125171120766,528.099876022635,452.2125171120766,541.1120902396999,443.6854949110172,541.1120902396999C435.1584727099578,541.1120902396999,435.1584727099578,530.89519235095,426.6314505088983,530.89519235095C418.1044283078388,530.89519235095,418.1044283078388,507.4035829832667,409.5774061067794,507.4035829832667C401.0270222010595,507.4035829832667,401.0270222010595,518.2672184755334,392.47663829533957,518.2672184755334C383.94961609428015,518.2672184755334,383.94961609428015,521.1241968598167,375.42259389322066,521.1241968598167C366.8955716921612,521.1241968598167,366.8955716921612,522.8799002159833,358.36854949110176,522.8799002159833C349.8405538856814,522.8799002159833,349.8405538856814,487.3746864518,341.3125582802611,487.3746864518C332.76217437454125,487.3746864518,332.76217437454125,471.84297191103326,324.21179046882133,471.84297191103326C315.68476826776185,471.84297191103326,315.68476826776185,451.5623652173667,307.1577460667024,451.5623652173667C298.63072386564295,451.5623652173667,298.63072386564295,452.09315249781673,290.10370166458347,452.09315249781673C281.576679463524,452.09315249781673,281.576679463524,438.27848575,273.04965726246456,438.27848575C264.5002467611055,438.27848575,264.5002467611055,437.6980116237167,255.95083625974644,437.6980116237167C247.423814058687,437.6980116237167,247.423814058687,426.08757095426665,238.89679185762753,426.08757095426665C230.36976965656805,426.08757095426665,230.36976965656805,406.29245863616666,221.8427474555086,406.29245863616666C213.31572525444915,406.29245863616666,213.31572525444915,400.928216199,204.7887030533897,400.928216199C196.2383191476698,400.928216199,196.2383191476698,404.43655413700003,187.6879352419499,404.43655413700003C179.16091304089042,404.43655413700003,179.16091304089042,393.38918429545,170.63389083983097,393.38918429545C162.10686863877152,393.38918429545,162.10686863877152,392.15438569323334,153.57984643771204,392.15438569323334C145.05282423665255,392.15438569323334,145.05282423665255,410.3939762766667,136.5258020355931,410.3939762766667C127.97541812987322,410.3939762766667,127.97541812987322,413.278792836,119.42503422415332,413.278792836C110.89801202309387,413.278792836,110.89801202309387,431.00255107000004,102.37098982203442,431.00255107000004C93.84396762097495,431.00255107000004,93.84396762097495,468.996659215,85.31694541991548,468.996659215C76.78992321885602,468.996659215,76.78992321885602,452.30550546999996,68.26290101779655,452.30550546999996C59.712517112076654,452.30550546999996,59.712517112076654,423.4771945884667,51.162133206356756,423.4771945884667C42.635111005297304,423.4771945884667,42.635111005297304,412.41812922741667,34.108088804237845,412.41812922741667C25.581066603178385,412.41812922741667,25.581066603178385,413.0825192860333,17.054044402118922,413.0825192860333C8.527022201059461,413.0825192860333,8.527022201059461,415.46941980285004,0,415.46941980285004Z"><title>Tape</title></path><path fill="#1f77b4" d="M0,337.4633252604833C8.527022201059461,337.4633252604833,8.527022201059461,334.46842392063337,17.054044402118922,334.46842392063337C25.581066603178385,334.46842392063337,25.581066603178385,335.68934930591666,34.108088804237845,335.68934930591666C42.635111005297304,335.68934930591666,42.635111005297304,336.5657961582,51.162133206356756,336.5657961582C59.712517112076654,336.5657961582,59.712517112076654,347.9023866966667,68.26290101779655,347.9023866966667C76.78992321885602,347.9023866966667,76.78992321885602,341.10803539166665,85.31694541991548,341.10803539166665C93.84396762097495,341.10803539166665,93.84396762097495,327.06941171333335,102.37098982203442,327.06941171333335C110.89801202309387,327.06941171333335,110.89801202309387,324.0884219626667,119.42503422415332,324.0884219626667C127.97541812987322,324.0884219626667,127.97541812987322,320.1068364083334,136.5258020355931,320.1068364083334C145.05282423665255,320.1068364083334,145.05282423665255,304.3434917504334,153.57984643771204,304.3434917504334C162.10686863877152,304.3434917504334,162.10686863877152,283.89902593255,170.63389083983097,283.89902593255C179.16091304089042,283.89902593255,179.16091304089042,261.636084689,187.6879352419499,261.636084689C196.2383191476698,261.636084689,196.2383191476698,245.64114064000003,204.7887030533897,245.64114064000003C213.31572525444915,245.64114064000003,213.31572525444915,219.62552643616667,221.8427474555086,219.62552643616667C230.36976965656805,219.62552643616667,230.36976965656805,186.23509463673338,238.89679185762753,186.23509463673338C247.423814058687,186.23509463673338,247.423814058687,158.23515960828328,255.95083625974644,158.23515960828328C264.5002467611055,158.23515960828328,264.5002467611055,143.470915,273.04965726246456,143.470915C281.576679463524,143.470915,281.576679463524,124.02738733385004,290.10370166458347,124.02738733385004C298.63072386564295,124.02738733385004,298.63072386564295,117.69659779313332,307.1577460667024,117.69659779313332C315.68476826776185,117.69659779313332,315.68476826776185,98.24664183903329,324.21179046882133,98.24664183903329C332.76217437454125,98.24664183903329,332.76217437454125,83.98214595539999,341.3125582802611,83.98214595539999C349.8405538856814,83.98214595539999,349.8405538856814,49.03868421841669,358.36854949110176,49.03868421841669C366.8955716921612,49.03868421841669,366.8955716921612,50.30935230615003,375.42259389322066,50.30935230615003C383.94961609428015,50.30935230615003,383.94961609428015,53.914373188199974,392.47663829533957,53.914373188199974C401.0270222010595,53.914373188199974,401.0270222010595,67.19567947259995,409.5774061067794,67.19567947259995C418.1044283078388,67.19567947259995,418.1044283078388,49.88099072261663,426.6314505088983,49.88099072261663C435.1584727099578,49.88099072261663,435.1584727099578,34.513780181066736,443.6854949110172,34.513780181066736C452.2125171120766,34.513780181066736,452.2125171120766,43.536328082998345,460.7395393131361,43.536328082998345C469.289923218856,43.536328082998345,469.289923218856,61.76188814274495,477.84030712457593,61.76188814274495C486.3673293256354,61.76188814274495,486.3673293256354,82.1858107775834,494.89435152669483,82.1858107775834C503.42137372775426,82.1858107775834,503.42137372775426,102.46334990476662,511.94839592881374,102.46334990476662C520.4754181298732,102.46334990476662,520.4754181298732,111.70600893078668,529.0024403309327,111.70600893078668C537.5528242366526,111.70600893078668,537.5528242366526,145.3219083560884,546.1032081423724,145.3219083560884C554.630230343432,145.3219083560884,554.630230343432,176.14674121344996,563.1572525444915,176.14674121344996C571.684274745551,176.14674121344996,571.684274745551,218.25610075829,580.2112969466103,218.25610075829C588.7373457433089,218.25610075829,588.7373457433089,249.7886428353867,597.2633945400075,249.7886428353867C605.8137784457274,249.7886428353867,605.8137784457274,268.633070733685,614.3641623514474,268.633070733685C622.8921579568677,268.633070733685,622.8921579568677,283.08859080585995,631.420153562288,283.08859080585995C639.9471757633474,283.08859080585995,639.9471757633474,292.25478460938666,648.4741979644069,292.25478460938666C657.0012201654663,292.25478460938666,657.0012201654663,306.44168373547166,665.5282423665258,306.44168373547166C674.0786262722456,306.44168373547166,674.0786262722456,315.16379962926834,682.6290101779656,315.16379962926834C691.156032379025,315.16379962926834,691.156032379025,319.47860628673493,699.6830545800844,319.47860628673493C708.2100767811439,319.47860628673493,708.2100767811439,328.0256624974,716.7370989822035,328.0256624974C725.2641211832629,328.0256624974,725.2641211832629,346.041568460385,733.7911433843224,346.041568460385C742.3415272900422,346.041568460385,742.3415272900422,361.2501110190933,750.8919111957622,361.2501110190933C759.4189333968216,361.2501110190933,759.4189333968216,380.3380118015683,767.945955597881,380.3380118015683C776.4729777989405,380.3380118015683,776.4729777989405,395.28220632809996,785,395.28220632809996L785,409.6351174197334C776.4729777989405,409.6351174197334,776.4729777989405,396.9530834273783,767.945955597881,396.9530834273783C759.4189333968216,396.9530834273783,759.4189333968216,387.0381985994767,750.8919111957622,387.0381985994767C742.3415272900422,387.0381985994767,742.3415272900422,374.183054699545,733.7911433843224,374.183054699545C725.2641211832629,374.183054699545,725.2641211832629,364.45016391035006,716.7370989822035,364.45016391035006C708.2100767811439,364.45016391035006,708.2100767811439,364.3473136677383,699.6830545800844,364.3473136677383C691.156032379025,364.3473136677383,691.156032379025,370.07396199712167,682.6290101779656,370.07396199712167C674.0786262722456,370.07396199712167,674.0786262722456,371.14180278390836,665.5282423665258,371.14180278390836C657.0012201654663,371.14180278390836,657.0012201654663,374.61722678396336,648.4741979644069,374.61722678396336C639.9471757633474,374.61722678396336,639.9471757633474,375.9378131186767,631.420153562288,375.9378131186767C622.8921579568677,375.9378131186767,622.8921579568677,388.872826666835,614.3641623514474,388.872826666835C605.8137784457274,388.872826666835,605.8137784457274,401.5630315128134,597.2633945400075,401.5630315128134C588.7373457433089,401.5630315128134,588.7373457433089,433.1604952143233,580.2112969466103,433.1604952143233C571.684274745551,433.1604952143233,571.684274745551,453.87191146343673,563.1572525444915,453.87191146343673C554.630230343432,453.87191146343673,554.630230343432,467.29395164502165,546.1032081423724,467.29395164502165C537.5528242366526,467.29395164502165,537.5528242366526,474.17638634912004,529.0024403309327,474.17638634912004C520.4754181298732,474.17638634912004,520.4754181298732,468.65680330093335,511.94839592881374,468.65680330093335C503.42137372775426,468.65680330093335,503.42137372775426,482.2077757992833,494.89435152669483,482.2077757992833C486.3673293256354,482.2077757992833,486.3673293256354,499.26882387341163,477.84030712457593,499.26882387341163C469.289923218856,499.26882387341163,469.289923218856,506.2547128526651,460.7395393131361,506.2547128526651C452.2125171120766,506.2547128526651,452.2125171120766,501.3814169620666,443.6854949110172,501.3814169620666C435.1584727099578,501.3814169620666,435.1584727099578,475.47617874061666,426.6314505088983,475.47617874061666C418.1044283078388,475.47617874061666,418.1044283078388,445.8473241306,409.5774061067794,445.8473241306C401.0270222010595,445.8473241306,401.0270222010595,438.63063326786664,392.47663829533957,438.63063326786664C383.94961609428015,438.63063326786664,383.94961609428015,421.70594444848336,375.42259389322066,421.70594444848336C366.8955716921612,421.70594444848336,366.8955716921612,392.0089324103167,358.36854949110176,392.0089324103167C349.8405538856814,392.0089324103167,349.8405538856814,354.68015206213335,341.3125582802611,354.68015206213335C332.76217437454125,354.68015206213335,332.76217437454125,326.63842107703323,324.21179046882133,326.63842107703323C315.68476826776185,326.63842107703323,315.68476826776185,309.2178534767,307.1577460667024,309.2178534767C298.63072386564295,309.2178534767,298.63072386564295,281.83706605215,290.10370166458347,281.83706605215C281.576679463524,281.83706605215,281.576679463524,267.95869275,273.04965726246456,267.95869275C264.5002467611055,267.95869275,264.5002467611055,264.11346392071664,255.95083625974644,264.11346392071664C247.423814058687,264.11346392071664,247.423814058687,269.91775211006666,238.89679185762753,269.91775211006666C230.36976965656805,269.91775211006666,230.36976965656805,270.24918915283337,221.8427474555086,270.24918915283337C213.31572525444915,270.24918915283337,213.31572525444915,267.23496996233337,204.7887030533897,267.23496996233337C196.2383191476698,267.23496996233337,196.2383191476698,267.56696620033335,187.6879352419499,267.56696620033335C179.16091304089042,267.56696620033335,179.16091304089042,284.9291833221166,170.63389083983097,284.9291833221166C162.10686863877152,284.9291833221166,162.10686863877152,304.3434917504334,153.57984643771204,304.3434917504334C145.05282423665255,304.3434917504334,145.05282423665255,320.1068364083334,136.5258020355931,320.1068364083334C127.97541812987322,320.1068364083334,127.97541812987322,324.0884219626667,119.42503422415332,324.0884219626667C110.89801202309387,324.0884219626667,110.89801202309387,327.06941171333335,102.37098982203442,327.06941171333335C93.84396762097495,327.06941171333335,93.84396762097495,341.10803539166665,85.31694541991548,341.10803539166665C76.78992321885602,341.10803539166665,76.78992321885602,347.9023866966667,68.26290101779655,347.9023866966667C59.712517112076654,347.9023866966667,59.712517112076654,336.5657961582,51.162133206356756,336.5657961582C42.635111005297304,336.5657961582,42.635111005297304,335.68934930591666,34.108088804237845,335.68934930591666C25.581066603178385,335.68934930591666,25.581066603178385,334.46842392063337,17.054044402118922,334.46842392063337C8.527022201059461,334.46842392063337,8.527022201059461,337.4633252604833,0,337.4633252604833Z"><title>Disc</title></path><path fill="#ff7f0e" d="M0,337.4633252604833C8.527022201059461,337.4633252604833,8.527022201059461,334.46842392063337,17.054044402118922,334.46842392063337C25.581066603178385,334.46842392063337,25.581066603178385,335.68934930591666,34.108088804237845,335.68934930591666C42.635111005297304,335.68934930591666,42.635111005297304,336.5657961582,51.162133206356756,336.5657961582C59.712517112076654,336.5657961582,59.712517112076654,347.9023866966667,68.26290101779655,347.9023866966667C76.78992321885602,347.9023866966667,76.78992321885602,341.10803539166665,85.31694541991548,341.10803539166665C93.84396762097495,341.10803539166665,93.84396762097495,327.06941171333335,102.37098982203442,327.06941171333335C110.89801202309387,327.06941171333335,110.89801202309387,324.0884219626667,119.42503422415332,324.0884219626667C127.97541812987322,324.0884219626667,127.97541812987322,320.1068364083334,136.5258020355931,320.1068364083334C145.05282423665255,320.1068364083334,145.05282423665255,304.3434917504334,153.57984643771204,304.3434917504334C162.10686863877152,304.3434917504334,162.10686863877152,283.89902593255,170.63389083983097,283.89902593255C179.16091304089042,283.89902593255,179.16091304089042,261.636084689,187.6879352419499,261.636084689C196.2383191476698,261.636084689,196.2383191476698,245.64114064000003,204.7887030533897,245.64114064000003C213.31572525444915,245.64114064000003,213.31572525444915,219.62552643616667,221.8427474555086,219.62552643616667C230.36976965656805,219.62552643616667,230.36976965656805,186.23509463673338,238.89679185762753,186.23509463673338C247.423814058687,186.23509463673338,247.423814058687,158.23515960828328,255.95083625974644,158.23515960828328C264.5002467611055,158.23515960828328,264.5002467611055,143.470915,273.04965726246456,143.470915C281.576679463524,143.470915,281.576679463524,124.02738733385004,290.10370166458347,124.02738733385004C298.63072386564295,124.02738733385004,298.63072386564295,117.69659779313332,307.1577460667024,117.69659779313332C315.68476826776185,117.69659779313332,315.68476826776185,98.24664183903329,324.21179046882133,98.24664183903329C332.76217437454125,98.24664183903329,332.76217437454125,83.98214595539999,341.3125582802611,83.98214595539999C349.8405538856814,83.98214595539999,349.8405538856814,49.03868421841669,358.36854949110176,49.03868421841669C366.8955716921612,49.03868421841669,366.8955716921612,50.30935230615003,375.42259389322066,50.30935230615003C383.94961609428015,50.30935230615003,383.94961609428015,53.914373188199974,392.47663829533957,53.914373188199974C401.0270222010595,53.914373188199974,401.0270222010595,67.19567947259995,409.5774061067794,67.19567947259995C418.1044283078388,67.19567947259995,418.1044283078388,49.88099072261663,426.6314505088983,49.88099072261663C435.1584727099578,49.88099072261663,435.1584727099578,34.513780181066736,443.6854949110172,34.513780181066736C452.2125171120766,34.513780181066736,452.2125171120766,43.536328082998345,460.7395393131361,43.536328082998345C469.289923218856,43.536328082998345,469.289923218856,61.76188814274495,477.84030712457593,61.76188814274495C486.3673293256354,61.76188814274495,486.3673293256354,82.1858107775834,494.89435152669483,82.1858107775834C503.42137372775426,82.1858107775834,503.42137372775426,102.46334990476662,511.94839592881374,102.46334990476662C520.4754181298732,102.46334990476662,520.4754181298732,105.91120715648667,529.0024403309327,105.91120715648667C537.5528242366526,105.91120715648667,537.5528242366526,117.08967835598828,546.1032081423724,117.08967835598828C554.630230343432,117.08967835598828,554.630230343432,127.32335579471662,563.1572525444915,127.32335579471662C571.684274745551,127.32335579471662,571.684274745551,149.41164589379008,580.2112969466103,149.41164589379008C588.7373457433089,149.41164589379008,588.7373457433089,175.37128754525335,597.2633945400075,175.37128754525335C605.8137784457274,175.37128754525335,605.8137784457274,194.67017482445166,614.3641623514474,194.67017482445166C622.8921579568677,194.67017482445166,622.8921579568677,209.40559275729333,631.420153562288,209.40559275729333C639.9471757633474,209.40559275729333,639.9471757633474,215.29972302365334,648.4741979644069,215.29972302365334C657.0012201654663,215.29972302365334,657.0012201654663,228.07380057220496,665.5282423665258,228.07380057220496C674.0786262722456,228.07380057220496,674.0786262722456,240.38365922016834,682.6290101779656,240.38365922016834C691.156032379025,240.38365922016834,691.156032379025,255.14448948850168,699.6830545800844,255.14448948850168C708.2100767811439,255.14448948850168,708.2100767811439,269.8699394051267,716.7370989822035,269.8699394051267C725.2641211832629,269.8699394051267,725.2641211832629,300.1468483306883,733.7911433843224,300.1468483306883C742.3415272900422,300.1468483306883,742.3415272900422,327.12541008438666,750.8919111957622,327.12541008438666C759.4189333968216,327.12541008438666,759.4189333968216,355.70054189444835,767.945955597881,355.70054189444835C776.4729777989405,355.70054189444835,776.4729777989405,375.3522711394866,785,375.3522711394866L785,395.28220632809996C776.4729777989405,395.28220632809996,776.4729777989405,380.3380118015683,767.945955597881,380.3380118015683C759.4189333968216,380.3380118015683,759.4189333968216,361.2501110190933,750.8919111957622,361.2501110190933C742.3415272900422,361.2501110190933,742.3415272900422,346.041568460385,733.7911433843224,346.041568460385C725.2641211832629,346.041568460385,725.2641211832629,328.0256624974,716.7370989822035,328.0256624974C708.2100767811439,328.0256624974,708.2100767811439,319.47860628673493,699.6830545800844,319.47860628673493C691.156032379025,319.47860628673493,691.156032379025,315.16379962926834,682.6290101779656,315.16379962926834C674.0786262722456,315.16379962926834,674.0786262722456,306.44168373547166,665.5282423665258,306.44168373547166C657.0012201654663,306.44168373547166,657.0012201654663,292.25478460938666,648.4741979644069,292.25478460938666C639.9471757633474,292.25478460938666,639.9471757633474,283.08859080585995,631.420153562288,283.08859080585995C622.8921579568677,283.08859080585995,622.8921579568677,268.633070733685,614.3641623514474,268.633070733685C605.8137784457274,268.633070733685,605.8137784457274,249.7886428353867,597.2633945400075,249.7886428353867C588.7373457433089,249.7886428353867,588.7373457433089,218.25610075829,580.2112969466103,218.25610075829C571.684274745551,218.25610075829,571.684274745551,176.14674121344996,563.1572525444915,176.14674121344996C554.630230343432,176.14674121344996,554.630230343432,145.3219083560884,546.1032081423724,145.3219083560884C537.5528242366526,145.3219083560884,537.5528242366526,111.70600893078668,529.0024403309327,111.70600893078668C520.4754181298732,111.70600893078668,520.4754181298732,102.46334990476662,511.94839592881374,102.46334990476662C503.42137372775426,102.46334990476662,503.42137372775426,82.1858107775834,494.89435152669483,82.1858107775834C486.3673293256354,82.1858107775834,486.3673293256354,61.76188814274495,477.84030712457593,61.76188814274495C469.289923218856,61.76188814274495,469.289923218856,43.536328082998345,460.7395393131361,43.536328082998345C452.2125171120766,43.536328082998345,452.2125171120766,34.513780181066736,443.6854949110172,34.513780181066736C435.1584727099578,34.513780181066736,435.1584727099578,49.88099072261663,426.6314505088983,49.88099072261663C418.1044283078388,49.88099072261663,418.1044283078388,67.19567947259995,409.5774061067794,67.19567947259995C401.0270222010595,67.19567947259995,401.0270222010595,53.914373188199974,392.47663829533957,53.914373188199974C383.94961609428015,53.914373188199974,383.94961609428015,50.30935230615003,375.42259389322066,50.30935230615003C366.8955716921612,50.30935230615003,366.8955716921612,49.03868421841669,358.36854949110176,49.03868421841669C349.8405538856814,49.03868421841669,349.8405538856814,83.98214595539999,341.3125582802611,83.98214595539999C332.76217437454125,83.98214595539999,332.76217437454125,98.24664183903329,324.21179046882133,98.24664183903329C315.68476826776185,98.24664183903329,315.68476826776185,117.69659779313332,307.1577460667024,117.69659779313332C298.63072386564295,117.69659779313332,298.63072386564295,124.02738733385004,290.10370166458347,124.02738733385004C281.576679463524,124.02738733385004,281.576679463524,143.470915,273.04965726246456,143.470915C264.5002467611055,143.470915,264.5002467611055,158.23515960828328,255.95083625974644,158.23515960828328C247.423814058687,158.23515960828328,247.423814058687,186.23509463673338,238.89679185762753,186.23509463673338C230.36976965656805,186.23509463673338,230.36976965656805,219.62552643616667,221.8427474555086,219.62552643616667C213.31572525444915,219.62552643616667,213.31572525444915,245.64114064000003,204.7887030533897,245.64114064000003C196.2383191476698,245.64114064000003,196.2383191476698,261.636084689,187.6879352419499,261.636084689C179.16091304089042,261.636084689,179.16091304089042,283.89902593255,170.63389083983097,283.89902593255C162.10686863877152,283.89902593255,162.10686863877152,304.3434917504334,153.57984643771204,304.3434917504334C145.05282423665255,304.3434917504334,145.05282423665255,320.1068364083334,136.5258020355931,320.1068364083334C127.97541812987322,320.1068364083334,127.97541812987322,324.0884219626667,119.42503422415332,324.0884219626667C110.89801202309387,324.0884219626667,110.89801202309387,327.06941171333335,102.37098982203442,327.06941171333335C93.84396762097495,327.06941171333335,93.84396762097495,341.10803539166665,85.31694541991548,341.10803539166665C76.78992321885602,341.10803539166665,76.78992321885602,347.9023866966667,68.26290101779655,347.9023866966667C59.712517112076654,347.9023866966667,59.712517112076654,336.5657961582,51.162133206356756,336.5657961582C42.635111005297304,336.5657961582,42.635111005297304,335.68934930591666,34.108088804237845,335.68934930591666C25.581066603178385,335.68934930591666,25.581066603178385,334.46842392063337,17.054044402118922,334.46842392063337C8.527022201059461,334.46842392063337,8.527022201059461,337.4633252604833,0,337.4633252604833Z"><title>Download</title></path><path fill="#2ca02c" d="M0,337.4633252604833C8.527022201059461,337.4633252604833,8.527022201059461,334.46842392063337,17.054044402118922,334.46842392063337C25.581066603178385,334.46842392063337,25.581066603178385,335.68934930591666,34.108088804237845,335.68934930591666C42.635111005297304,335.68934930591666,42.635111005297304,336.5657961582,51.162133206356756,336.5657961582C59.712517112076654,336.5657961582,59.712517112076654,347.9023866966667,68.26290101779655,347.9023866966667C76.78992321885602,347.9023866966667,76.78992321885602,341.10803539166665,85.31694541991548,341.10803539166665C93.84396762097495,341.10803539166665,93.84396762097495,327.06941171333335,102.37098982203442,327.06941171333335C110.89801202309387,327.06941171333335,110.89801202309387,324.0884219626667,119.42503422415332,324.0884219626667C127.97541812987322,324.0884219626667,127.97541812987322,320.1068364083334,136.5258020355931,320.1068364083334C145.05282423665255,320.1068364083334,145.05282423665255,304.3434917504334,153.57984643771204,304.3434917504334C162.10686863877152,304.3434917504334,162.10686863877152,283.89902593255,170.63389083983097,283.89902593255C179.16091304089042,283.89902593255,179.16091304089042,261.636084689,187.6879352419499,261.636084689C196.2383191476698,261.636084689,196.2383191476698,245.64114064000003,204.7887030533897,245.64114064000003C213.31572525444915,245.64114064000003,213.31572525444915,219.62552643616667,221.8427474555086,219.62552643616667C230.36976965656805,219.62552643616667,230.36976965656805,186.23509463673338,238.89679185762753,186.23509463673338C247.423814058687,186.23509463673338,247.423814058687,158.23515960828328,255.95083625974644,158.23515960828328C264.5002467611055,158.23515960828328,264.5002467611055,137.9193095,273.04965726246456,137.9193095C281.576679463524,137.9193095,281.576679463524,116.16337540651666,290.10370166458347,116.16337540651666C298.63072386564295,116.16337540651666,298.63072386564295,112.5240172284666,307.1577460667024,112.5240172284666C315.68476826776185,112.5240172284666,315.68476826776185,91.55424738436668,324.21179046882133,91.55424738436668C332.76217437454125,91.55424738436668,332.76217437454125,75.17657579039992,341.3125582802611,75.17657579039992C349.8405538856814,75.17657579039992,349.8405538856814,39.73647259108341,358.36854949110176,39.73647259108341C366.8955716921612,39.73647259108341,366.8955716921612,41.68624076481674,375.42259389322066,41.68624076481674C383.94961609428015,41.68624076481674,383.94961609428015,44.93786322619998,392.47663829533957,44.93786322619998C401.0270222010595,44.93786322619998,401.0270222010595,55.15723469293334,409.5774061067794,55.15723469293334C418.1044283078388,55.15723469293334,418.1044283078388,31.28965550795001,426.6314505088983,31.28965550795001C435.1584727099578,31.28965550795001,435.1584727099578,21.025546020733394,443.6854949110172,21.025546020733394C452.2125171120766,21.025546020733394,452.2125171120766,33.770784952998355,460.7395393131361,33.770784952998355C469.289923218856,33.770784952998355,469.289923218856,50.471212727821644,477.84030712457593,50.471212727821644C486.3673293256354,50.471212727821644,486.3673293256354,72.34086093208329,494.89435152669483,72.34086093208329C503.42137372775426,72.34086093208329,503.42137372775426,89.23912106316658,511.94839592881374,89.23912106316658C520.4754181298732,89.23912106316658,520.4754181298732,86.53098999824999,529.0024403309327,86.53098999824999C537.5528242366526,86.53098999824999,537.5528242366526,98.32317168917834,546.1032081423724,98.32317168917834C554.630230343432,98.32317168917834,554.630230343432,113.84810141966328,563.1572525444915,113.84810141966328C571.684274745551,113.84810141966328,571.684274745551,135.30261888572332,580.2112969466103,135.30261888572332C588.7373457433089,135.30261888572332,588.7373457433089,168.96827521763,597.2633945400075,168.96827521763C605.8137784457274,168.96827521763,605.8137784457274,183.02797011738167,614.3641623514474,183.02797011738167C622.8921579568677,183.02797011738167,622.8921579568677,199.18506551740998,631.420153562288,199.18506551740998C639.9471757633474,199.18506551740998,639.9471757633474,206.00454448758333,648.4741979644069,206.00454448758333C657.0012201654663,206.00454448758333,657.0012201654663,219.99211105378495,665.5282423665258,219.99211105378495C674.0786262722456,219.99211105378495,674.0786262722456,232.64660196552833,682.6290101779656,232.64660196552833C691.156032379025,232.64660196552833,691.156032379025,247.984642679865,699.6830545800844,247.984642679865C708.2100767811439,247.984642679865,708.2100767811439,262.7602306078867,716.7370989822035,262.7602306078867C725.2641211832629,262.7602306078867,725.2641211832629,293.2486093878717,733.7911433843224,293.2486093878717C742.3415272900422,293.2486093878717,742.3415272900422,320.4190972782567,750.8919111957622,320.4190972782567C759.4189333968216,320.4190972782567,759.4189333968216,348.13760799105165,767.945955597881,348.13760799105165C776.4729777989405,348.13760799105165,776.4729777989405,368.1977722552967,785,368.1977722552967L785,375.3522711394866C776.4729777989405,375.3522711394866,776.4729777989405,355.70054189444835,767.945955597881,355.70054189444835C759.4189333968216,355.70054189444835,759.4189333968216,327.12541008438666,750.8919111957622,327.12541008438666C742.3415272900422,327.12541008438666,742.3415272900422,300.1468483306883,733.7911433843224,300.1468483306883C725.2641211832629,300.1468483306883,725.2641211832629,269.8699394051267,716.7370989822035,269.8699394051267C708.2100767811439,269.8699394051267,708.2100767811439,255.14448948850168,699.6830545800844,255.14448948850168C691.156032379025,255.14448948850168,691.156032379025,240.38365922016834,682.6290101779656,240.38365922016834C674.0786262722456,240.38365922016834,674.0786262722456,228.07380057220496,665.5282423665258,228.07380057220496C657.0012201654663,228.07380057220496,657.0012201654663,215.29972302365334,648.4741979644069,215.29972302365334C639.9471757633474,215.29972302365334,639.9471757633474,209.40559275729333,631.420153562288,209.40559275729333C622.8921579568677,209.40559275729333,622.8921579568677,194.67017482445166,614.3641623514474,194.67017482445166C605.8137784457274,194.67017482445166,605.8137784457274,175.37128754525335,597.2633945400075,175.37128754525335C588.7373457433089,175.37128754525335,588.7373457433089,149.41164589379008,580.2112969466103,149.41164589379008C571.684274745551,149.41164589379008,571.684274745551,127.32335579471662,563.1572525444915,127.32335579471662C554.630230343432,127.32335579471662,554.630230343432,117.08967835598828,546.1032081423724,117.08967835598828C537.5528242366526,117.08967835598828,537.5528242366526,105.91120715648667,529.0024403309327,105.91120715648667C520.4754181298732,105.91120715648667,520.4754181298732,102.46334990476662,511.94839592881374,102.46334990476662C503.42137372775426,102.46334990476662,503.42137372775426,82.1858107775834,494.89435152669483,82.1858107775834C486.3673293256354,82.1858107775834,486.3673293256354,61.76188814274495,477.84030712457593,61.76188814274495C469.289923218856,61.76188814274495,469.289923218856,43.536328082998345,460.7395393131361,43.536328082998345C452.2125171120766,43.536328082998345,452.2125171120766,34.513780181066736,443.6854949110172,34.513780181066736C435.1584727099578,34.513780181066736,435.1584727099578,49.88099072261663,426.6314505088983,49.88099072261663C418.1044283078388,49.88099072261663,418.1044283078388,67.19567947259995,409.5774061067794,67.19567947259995C401.0270222010595,67.19567947259995,401.0270222010595,53.914373188199974,392.47663829533957,53.914373188199974C383.94961609428015,53.914373188199974,383.94961609428015,50.30935230615003,375.42259389322066,50.30935230615003C366.8955716921612,50.30935230615003,366.8955716921612,49.03868421841669,358.36854949110176,49.03868421841669C349.8405538856814,49.03868421841669,349.8405538856814,83.98214595539999,341.3125582802611,83.98214595539999C332.76217437454125,83.98214595539999,332.76217437454125,98.24664183903329,324.21179046882133,98.24664183903329C315.68476826776185,98.24664183903329,315.68476826776185,117.69659779313332,307.1577460667024,117.69659779313332C298.63072386564295,117.69659779313332,298.63072386564295,124.02738733385004,290.10370166458347,124.02738733385004C281.576679463524,124.02738733385004,281.576679463524,143.470915,273.04965726246456,143.470915C264.5002467611055,143.470915,264.5002467611055,158.23515960828328,255.95083625974644,158.23515960828328C247.423814058687,158.23515960828328,247.423814058687,186.23509463673338,238.89679185762753,186.23509463673338C230.36976965656805,186.23509463673338,230.36976965656805,219.62552643616667,221.8427474555086,219.62552643616667C213.31572525444915,219.62552643616667,213.31572525444915,245.64114064000003,204.7887030533897,245.64114064000003C196.2383191476698,245.64114064000003,196.2383191476698,261.636084689,187.6879352419499,261.636084689C179.16091304089042,261.636084689,179.16091304089042,283.89902593255,170.63389083983097,283.89902593255C162.10686863877152,283.89902593255,162.10686863877152,304.3434917504334,153.57984643771204,304.3434917504334C145.05282423665255,304.3434917504334,145.05282423665255,320.1068364083334,136.5258020355931,320.1068364083334C127.97541812987322,320.1068364083334,127.97541812987322,324.0884219626667,119.42503422415332,324.0884219626667C110.89801202309387,324.0884219626667,110.89801202309387,327.06941171333335,102.37098982203442,327.06941171333335C93.84396762097495,327.06941171333335,93.84396762097495,341.10803539166665,85.31694541991548,341.10803539166665C76.78992321885602,341.10803539166665,76.78992321885602,347.9023866966667,68.26290101779655,347.9023866966667C59.712517112076654,347.9023866966667,59.712517112076654,336.5657961582,51.162133206356756,336.5657961582C42.635111005297304,336.5657961582,42.635111005297304,335.68934930591666,34.108088804237845,335.68934930591666C25.581066603178385,335.68934930591666,25.581066603178385,334.46842392063337,17.054044402118922,334.46842392063337C8.527022201059461,334.46842392063337,8.527022201059461,337.4633252604833,0,337.4633252604833Z"><title>Other</title></path><path fill="#d62728" d="M0,337.4633252604833C8.527022201059461,337.4633252604833,8.527022201059461,334.46842392063337,17.054044402118922,334.46842392063337C25.581066603178385,334.46842392063337,25.581066603178385,335.68934930591666,34.108088804237845,335.68934930591666C42.635111005297304,335.68934930591666,42.635111005297304,336.5657961582,51.162133206356756,336.5657961582C59.712517112076654,336.5657961582,59.712517112076654,347.9023866966667,68.26290101779655,347.9023866966667C76.78992321885602,347.9023866966667,76.78992321885602,341.10803539166665,85.31694541991548,341.10803539166665C93.84396762097495,341.10803539166665,93.84396762097495,327.06941171333335,102.37098982203442,327.06941171333335C110.89801202309387,327.06941171333335,110.89801202309387,324.0884219626667,119.42503422415332,324.0884219626667C127.97541812987322,324.0884219626667,127.97541812987322,320.1068364083334,136.5258020355931,320.1068364083334C145.05282423665255,320.1068364083334,145.05282423665255,304.3434917504334,153.57984643771204,304.3434917504334C162.10686863877152,304.3434917504334,162.10686863877152,283.89902593255,170.63389083983097,283.89902593255C179.16091304089042,283.89902593255,179.16091304089042,261.636084689,187.6879352419499,261.636084689C196.2383191476698,261.636084689,196.2383191476698,245.64114064000003,204.7887030533897,245.64114064000003C213.31572525444915,245.64114064000003,213.31572525444915,219.62552643616667,221.8427474555086,219.62552643616667C230.36976965656805,219.62552643616667,230.36976965656805,186.23509463673338,238.89679185762753,186.23509463673338C247.423814058687,186.23509463673338,247.423814058687,158.23515960828328,255.95083625974644,158.23515960828328C264.5002467611055,158.23515960828328,264.5002467611055,137.9193095,273.04965726246456,137.9193095C281.576679463524,137.9193095,281.576679463524,116.16337540651666,290.10370166458347,116.16337540651666C298.63072386564295,116.16337540651666,298.63072386564295,112.5240172284666,307.1577460667024,112.5240172284666C315.68476826776185,112.5240172284666,315.68476826776185,91.55424738436668,324.21179046882133,91.55424738436668C332.76217437454125,91.55424738436668,332.76217437454125,75.17657579039992,341.3125582802611,75.17657579039992C349.8405538856814,75.17657579039992,349.8405538856814,39.73647259108341,358.36854949110176,39.73647259108341C366.8955716921612,39.73647259108341,366.8955716921612,41.68624076481674,375.42259389322066,41.68624076481674C383.94961609428015,41.68624076481674,383.94961609428015,44.93786322619998,392.47663829533957,44.93786322619998C401.0270222010595,44.93786322619998,401.0270222010595,55.15723469293334,409.5774061067794,55.15723469293334C418.1044283078388,55.15723469293334,418.1044283078388,31.28965550795001,426.6314505088983,31.28965550795001C435.1584727099578,31.28965550795001,435.1584727099578,21.025546020733394,443.6854949110172,21.025546020733394C452.2125171120766,21.025546020733394,452.2125171120766,33.770784952998355,460.7395393131361,33.770784952998355C469.289923218856,33.770784952998355,469.289923218856,50.471212727821644,477.84030712457593,50.471212727821644C486.3673293256354,50.471212727821644,486.3673293256354,72.34086093208329,494.89435152669483,72.34086093208329C503.42137372775426,72.34086093208329,503.42137372775426,89.23912106316658,511.94839592881374,89.23912106316658C520.4754181298732,89.23912106316658,520.4754181298732,86.31309281984667,529.0024403309327,86.31309281984667C537.5528242366526,86.31309281984667,537.5528242366526,93.14283391047832,546.1032081423724,93.14283391047832C554.630230343432,93.14283391047832,554.630230343432,106.7761080156633,563.1572525444915,106.7761080156633C571.684274745551,106.7761080156633,571.684274745551,127.52725870269002,580.2112969466103,127.52725870269002C588.7373457433089,127.52725870269002,588.7373457433089,160.06335024229665,597.2633945400075,160.06335024229665C605.8137784457274,160.06335024229665,605.8137784457274,172.9706846110483,614.3641623514474,172.9706846110483C622.8921579568677,172.9706846110483,622.8921579568677,186.55713357374333,631.420153562288,186.55713357374333C639.9471757633474,186.55713357374333,639.9471757633474,188.67122439725003,648.4741979644069,188.67122439725003C657.0012201654663,188.67122439725003,657.0012201654663,193.1573512651183,665.5282423665258,193.1573512651183C674.0786262722456,193.1573512651183,674.0786262722456,195.3987146198616,682.6290101779656,195.3987146198616C691.156032379025,195.3987146198616,691.156032379025,201.9357712145317,699.6830545800844,201.9357712145317C708.2100767811439,201.9357712145317,708.2100767811439,204.08525232988669,716.7370989822035,204.08525232988669C725.2641211832629,204.08525232988669,725.2641211832629,194.77242335633832,733.7911433843224,194.77242335633832C742.3415272900422,194.77242335633832,742.3415272900422,182.56467568059,750.8919111957622,182.56467568059C759.4189333968216,182.56467568059,759.4189333968216,173.1317321840516,767.945955597881,173.1317321840516C776.4729777989405,173.1317321840516,776.4729777989405,162.13386279829672,785,162.13386279829672L785,368.1977722552967C776.4729777989405,368.1977722552967,776.4729777989405,348.13760799105165,767.945955597881,348.13760799105165C759.4189333968216,348.13760799105165,759.4189333968216,320.4190972782567,750.8919111957622,320.4190972782567C742.3415272900422,320.4190972782567,742.3415272900422,293.2486093878717,733.7911433843224,293.2486093878717C725.2641211832629,293.2486093878717,725.2641211832629,262.7602306078867,716.7370989822035,262.7602306078867C708.2100767811439,262.7602306078867,708.2100767811439,247.984642679865,699.6830545800844,247.984642679865C691.156032379025,247.984642679865,691.156032379025,232.64660196552833,682.6290101779656,232.64660196552833C674.0786262722456,232.64660196552833,674.0786262722456,219.99211105378495,665.5282423665258,219.99211105378495C657.0012201654663,219.99211105378495,657.0012201654663,206.00454448758333,648.4741979644069,206.00454448758333C639.9471757633474,206.00454448758333,639.9471757633474,199.18506551740998,631.420153562288,199.18506551740998C622.8921579568677,199.18506551740998,622.8921579568677,183.02797011738167,614.3641623514474,183.02797011738167C605.8137784457274,183.02797011738167,605.8137784457274,168.96827521763,597.2633945400075,168.96827521763C588.7373457433089,168.96827521763,588.7373457433089,135.30261888572332,580.2112969466103,135.30261888572332C571.684274745551,135.30261888572332,571.684274745551,113.84810141966328,563.1572525444915,113.84810141966328C554.630230343432,113.84810141966328,554.630230343432,98.32317168917834,546.1032081423724,98.32317168917834C537.5528242366526,98.32317168917834,537.5528242366526,86.53098999824999,529.0024403309327,86.53098999824999C520.4754181298732,86.53098999824999,520.4754181298732,89.23912106316658,511.94839592881374,89.23912106316658C503.42137372775426,89.23912106316658,503.42137372775426,72.34086093208329,494.89435152669483,72.34086093208329C486.3673293256354,72.34086093208329,486.3673293256354,50.471212727821644,477.84030712457593,50.471212727821644C469.289923218856,50.471212727821644,469.289923218856,33.770784952998355,460.7395393131361,33.770784952998355C452.2125171120766,33.770784952998355,452.2125171120766,21.025546020733394,443.6854949110172,21.025546020733394C435.1584727099578,21.025546020733394,435.1584727099578,31.28965550795001,426.6314505088983,31.28965550795001C418.1044283078388,31.28965550795001,418.1044283078388,55.15723469293334,409.5774061067794,55.15723469293334C401.0270222010595,55.15723469293334,401.0270222010595,44.93786322619998,392.47663829533957,44.93786322619998C383.94961609428015,44.93786322619998,383.94961609428015,41.68624076481674,375.42259389322066,41.68624076481674C366.8955716921612,41.68624076481674,366.8955716921612,39.73647259108341,358.36854949110176,39.73647259108341C349.8405538856814,39.73647259108341,349.8405538856814,75.17657579039992,341.3125582802611,75.17657579039992C332.76217437454125,75.17657579039992,332.76217437454125,91.55424738436668,324.21179046882133,91.55424738436668C315.68476826776185,91.55424738436668,315.68476826776185,112.5240172284666,307.1577460667024,112.5240172284666C298.63072386564295,112.5240172284666,298.63072386564295,116.16337540651666,290.10370166458347,116.16337540651666C281.576679463524,116.16337540651666,281.576679463524,137.9193095,273.04965726246456,137.9193095C264.5002467611055,137.9193095,264.5002467611055,158.23515960828328,255.95083625974644,158.23515960828328C247.423814058687,158.23515960828328,247.423814058687,186.23509463673338,238.89679185762753,186.23509463673338C230.36976965656805,186.23509463673338,230.36976965656805,219.62552643616667,221.8427474555086,219.62552643616667C213.31572525444915,219.62552643616667,213.31572525444915,245.64114064000003,204.7887030533897,245.64114064000003C196.2383191476698,245.64114064000003,196.2383191476698,261.636084689,187.6879352419499,261.636084689C179.16091304089042,261.636084689,179.16091304089042,283.89902593255,170.63389083983097,283.89902593255C162.10686863877152,283.89902593255,162.10686863877152,304.3434917504334,153.57984643771204,304.3434917504334C145.05282423665255,304.3434917504334,145.05282423665255,320.1068364083334,136.5258020355931,320.1068364083334C127.97541812987322,320.1068364083334,127.97541812987322,324.0884219626667,119.42503422415332,324.0884219626667C110.89801202309387,324.0884219626667,110.89801202309387,327.06941171333335,102.37098982203442,327.06941171333335C93.84396762097495,327.06941171333335,93.84396762097495,341.10803539166665,85.31694541991548,341.10803539166665C76.78992321885602,341.10803539166665,76.78992321885602,347.9023866966667,68.26290101779655,347.9023866966667C59.712517112076654,347.9023866966667,59.712517112076654,336.5657961582,51.162133206356756,336.5657961582C42.635111005297304,336.5657961582,42.635111005297304,335.68934930591666,34.108088804237845,335.68934930591666C25.581066603178385,335.68934930591666,25.581066603178385,334.46842392063337,17.054044402118922,334.46842392063337C8.527022201059461,334.46842392063337,8.527022201059461,337.4633252604833,0,337.4633252604833Z"><title>Streaming</title></path><path fill="#8c564b" d="M0,144.53058019715004C8.527022201059461,144.53058019715004,8.527022201059461,146.91748071396668,17.054044402118922,146.91748071396668C25.581066603178385,146.91748071396668,25.581066603178385,147.58187077258341,34.108088804237845,147.58187077258341C42.635111005297304,147.58187077258341,42.635111005297304,136.52280541153334,51.162133206356756,136.52280541153334C59.712517112076654,136.52280541153334,59.712517112076654,107.69449453000001,68.26290101779655,107.69449453000001C76.78992321885602,107.69449453000001,76.78992321885602,91.00334078500005,85.31694541991548,91.00334078500005C93.84396762097495,91.00334078500005,93.84396762097495,128.99744893,102.37098982203442,128.99744893C110.89801202309387,128.99744893,110.89801202309387,146.72120716399996,119.42503422415332,146.72120716399996C127.97541812987322,146.72120716399996,127.97541812987322,149.60602372333335,136.5258020355931,149.60602372333335C145.05282423665255,149.60602372333335,145.05282423665255,167.84561430676666,153.57984643771204,167.84561430676666C162.10686863877152,167.84561430676666,162.10686863877152,166.61081570455002,170.63389083983097,166.61081570455002C179.16091304089042,166.61081570455002,179.16091304089042,155.56344586300006,187.6879352419499,155.56344586300006C196.2383191476698,155.56344586300006,196.2383191476698,159.07178380100004,204.7887030533897,159.07178380100004C213.31572525444915,159.07178380100004,213.31572525444915,153.70754136383337,221.8427474555086,153.70754136383337C230.36976965656805,153.70754136383337,230.36976965656805,133.9124290457334,238.89679185762753,133.9124290457334C247.423814058687,133.9124290457334,247.423814058687,122.30198837628332,255.95083625974644,122.30198837628332C264.5002467611055,122.30198837628332,264.5002467611055,121.72151424999998,273.04965726246456,121.72151424999998C281.576679463524,121.72151424999998,281.576679463524,107.90684750218335,290.10370166458347,107.90684750218335C298.63072386564295,107.90684750218335,298.63072386564295,108.43763478263332,307.1577460667024,108.43763478263332C315.68476826776185,108.43763478263332,315.68476826776185,88.15702808896665,324.21179046882133,88.15702808896665C332.76217437454125,88.15702808896665,332.76217437454125,72.6253135482,341.3125582802611,72.6253135482C349.8405538856814,72.6253135482,349.8405538856814,37.12009978401673,358.36854949110176,37.12009978401673C366.8955716921612,37.12009978401673,366.8955716921612,38.875803140183365,375.42259389322066,38.875803140183365C383.94961609428015,38.875803140183365,383.94961609428015,41.73278152446667,392.47663829533957,41.73278152446667C401.0270222010595,41.73278152446667,401.0270222010595,52.59641701673325,409.5774061067794,52.59641701673325C418.1044283078388,52.59641701673325,418.1044283078388,29.104807649049977,426.6314505088983,29.104807649049977C435.1584727099578,29.104807649049977,435.1584727099578,18.887909760299976,443.6854949110172,18.887909760299976C452.2125171120766,18.887909760299976,452.2125171120766,31.900123977365062,460.7395393131361,31.900123977365062C469.289923218856,31.900123977365062,469.289923218856,48.49062885425498,477.84030712457593,48.49062885425498C486.3673293256354,48.49062885425498,486.3673293256354,70.83543579571672,494.89435152669483,70.83543579571672C503.42137372775426,70.83543579571672,503.42137372775426,87.83856532406662,511.94839592881374,87.83856532406662C520.4754181298732,87.83856532406662,520.4754181298732,85.07518421201333,529.0024403309327,85.07518421201333C537.5528242366526,85.07518421201333,537.5528242366526,92.305916132745,546.1032081423724,92.305916132745C554.630230343432,92.305916132745,554.630230343432,106.01860579349658,563.1572525444915,106.01860579349658C571.684274745551,106.01860579349658,571.684274745551,126.75317584211336,580.2112969466103,126.75317584211336C588.7373457433089,126.75317584211336,588.7373457433089,158.41203248072998,597.2633945400075,158.41203248072998C605.8137784457274,158.41203248072998,605.8137784457274,171.12717333316502,614.3641623514474,171.12717333316502C622.8921579568677,171.12717333316502,622.8921579568677,184.06218688132333,631.420153562288,184.06218688132333C639.9471757633474,184.06218688132333,639.9471757633474,185.38277321603664,648.4741979644069,185.38277321603664C657.0012201654663,185.38277321603664,657.0012201654663,188.85819721609167,665.5282423665258,188.85819721609167C674.0786262722456,188.85819721609167,674.0786262722456,189.92603800287833,682.6290101779656,189.92603800287833C691.156032379025,189.92603800287833,691.156032379025,195.65268633226165,699.6830545800844,195.65268633226165C708.2100767811439,195.65268633226165,708.2100767811439,195.54983608965003,716.7370989822035,195.54983608965003C725.2641211832629,195.54983608965003,725.2641211832629,185.81694530045502,733.7911433843224,185.81694530045502C742.3415272900422,185.81694530045502,742.3415272900422,172.96180140052334,750.8919111957622,172.96180140052334C759.4189333968216,172.96180140052334,759.4189333968216,163.04691657262168,767.945955597881,163.04691657262168C776.4729777989405,163.04691657262168,776.4729777989405,150.36488258026662,785,150.36488258026662L785,162.13386279829672C776.4729777989405,162.13386279829672,776.4729777989405,173.1317321840516,767.945955597881,173.1317321840516C759.4189333968216,173.1317321840516,759.4189333968216,182.56467568059,750.8919111957622,182.56467568059C742.3415272900422,182.56467568059,742.3415272900422,194.77242335633832,733.7911433843224,194.77242335633832C725.2641211832629,194.77242335633832,725.2641211832629,204.08525232988669,716.7370989822035,204.08525232988669C708.2100767811439,204.08525232988669,708.2100767811439,201.9357712145317,699.6830545800844,201.9357712145317C691.156032379025,201.9357712145317,691.156032379025,195.3987146198616,682.6290101779656,195.3987146198616C674.0786262722456,195.3987146198616,674.0786262722456,193.1573512651183,665.5282423665258,193.1573512651183C657.0012201654663,193.1573512651183,657.0012201654663,188.67122439725003,648.4741979644069,188.67122439725003C639.9471757633474,188.67122439725003,639.9471757633474,186.55713357374333,631.420153562288,186.55713357374333C622.8921579568677,186.55713357374333,622.8921579568677,172.9706846110483,614.3641623514474,172.9706846110483C605.8137784457274,172.9706846110483,605.8137784457274,160.06335024229665,597.2633945400075,160.06335024229665C588.7373457433089,160.06335024229665,588.7373457433089,127.52725870269002,580.2112969466103,127.52725870269002C571.684274745551,127.52725870269002,571.684274745551,106.7761080156633,563.1572525444915,106.7761080156633C554.630230343432,106.7761080156633,554.630230343432,93.14283391047832,546.1032081423724,93.14283391047832C537.5528242366526,93.14283391047832,537.5528242366526,86.31309281984667,529.0024403309327,86.31309281984667C520.4754181298732,86.31309281984667,520.4754181298732,89.23912106316658,511.94839592881374,89.23912106316658C503.42137372775426,89.23912106316658,503.42137372775426,72.34086093208329,494.89435152669483,72.34086093208329C486.3673293256354,72.34086093208329,486.3673293256354,50.471212727821644,477.84030712457593,50.471212727821644C469.289923218856,50.471212727821644,469.289923218856,33.770784952998355,460.7395393131361,33.770784952998355C452.2125171120766,33.770784952998355,452.2125171120766,21.025546020733394,443.6854949110172,21.025546020733394C435.1584727099578,21.025546020733394,435.1584727099578,31.28965550795001,426.6314505088983,31.28965550795001C418.1044283078388,31.28965550795001,418.1044283078388,55.15723469293334,409.5774061067794,55.15723469293334C401.0270222010595,55.15723469293334,401.0270222010595,44.93786322619998,392.47663829533957,44.93786322619998C383.94961609428015,44.93786322619998,383.94961609428015,41.68624076481674,375.42259389322066,41.68624076481674C366.8955716921612,41.68624076481674,366.8955716921612,39.73647259108341,358.36854949110176,39.73647259108341C349.8405538856814,39.73647259108341,349.8405538856814,75.17657579039992,341.3125582802611,75.17657579039992C332.76217437454125,75.17657579039992,332.76217437454125,91.55424738436668,324.21179046882133,91.55424738436668C315.68476826776185,91.55424738436668,315.68476826776185,112.5240172284666,307.1577460667024,112.5240172284666C298.63072386564295,112.5240172284666,298.63072386564295,116.16337540651666,290.10370166458347,116.16337540651666C281.576679463524,116.16337540651666,281.576679463524,137.9193095,273.04965726246456,137.9193095C264.5002467611055,137.9193095,264.5002467611055,158.23515960828328,255.95083625974644,158.23515960828328C247.423814058687,158.23515960828328,247.423814058687,186.23509463673338,238.89679185762753,186.23509463673338C230.36976965656805,186.23509463673338,230.36976965656805,219.62552643616667,221.8427474555086,219.62552643616667C213.31572525444915,219.62552643616667,213.31572525444915,245.64114064000003,204.7887030533897,245.64114064000003C196.2383191476698,245.64114064000003,196.2383191476698,261.636084689,187.6879352419499,261.636084689C179.16091304089042,261.636084689,179.16091304089042,283.89902593255,170.63389083983097,283.89902593255C162.10686863877152,283.89902593255,162.10686863877152,304.3434917504334,153.57984643771204,304.3434917504334C145.05282423665255,304.3434917504334,145.05282423665255,320.1068364083334,136.5258020355931,320.1068364083334C127.97541812987322,320.1068364083334,127.97541812987322,324.0884219626667,119.42503422415332,324.0884219626667C110.89801202309387,324.0884219626667,110.89801202309387,327.06941171333335,102.37098982203442,327.06941171333335C93.84396762097495,327.06941171333335,93.84396762097495,341.10803539166665,85.31694541991548,341.10803539166665C76.78992321885602,341.10803539166665,76.78992321885602,347.9023866966667,68.26290101779655,347.9023866966667C59.712517112076654,347.9023866966667,59.712517112076654,336.5657961582,51.162133206356756,336.5657961582C42.635111005297304,336.5657961582,42.635111005297304,335.68934930591666,34.108088804237845,335.68934930591666C25.581066603178385,335.68934930591666,25.581066603178385,334.46842392063337,17.054044402118922,334.46842392063337C8.527022201059461,334.46842392063337,8.527022201059461,337.4633252604833,0,337.4633252604833Z"><title>Vinyl</title></path></g><g id="xAxis" transform="translate(0,560)" fill="none" font-size="10" font-family="sans-serif" text-anchor="middle"><path class="domain" stroke="currentColor" d="M0,0H785"/><g class="tick" opacity="1" transform="translate(34.108088804237845,0)"><line stroke="currentColor" y2="6"/><text fill="currentColor" y="9" dy="0.71em">1975</text></g><g class="tick" opacity="1" transform="translate(119.42503422415332,0)"><line stroke="currentColor" y2="6"/><text fill="currentColor" y="9" dy="0.71em">1980</text></g><g class="tick" opacity="1" transform="translate(204.7887030533897,0)"><line stroke="currentColor" y2="6"/><text fill="currentColor" y="9" dy="0.71em">1985</text></g><g class="tick" opacity="1" transform="translate(290.10370166458347,0)"><line stroke="currentColor" y2="6"/><text fill="currentColor" y="9" dy="0.71em">1990</text></g><g class="tick" opacity="1" transform="translate(375.42259389322066,0)"><line stroke="currentColor" y2="6"/><text fill="currentColor" y="9" dy="0.71em">1995</text></g><g class="tick" opacity="1" transform="translate(460.7395393131361,0)"><line stroke="currentColor" y2="6"/><text fill="currentColor" y="9" dy="0.71em">2000</text></g><g class="tick" opacity="1" transform="translate(546.1032081423724,0)"><line stroke="currentColor" y2="6"/><text fill="currentColor" y="9" dy="0.71em">2005</text></g><g class="tick" opacity="1" transform="translate(631.420153562288,0)"><line stroke="currentColor" y2="6"/><text fill="currentColor" y="9" dy="0.71em">2010</text></g><g class="tick" opacity="1" transform="translate(716.7370989822035,0)"><line stroke="currentColor" y2="6"/><text fill="currentColor" y="9" dy="0.71em">2015</text></g></g><text y="556" x="785" text-anchor="end" style="font-family: Arial, sans-serif; font-size: 12px; fill: rgb(123, 123, 123); font-weight: bold;">year-date</text><text x="4" text-anchor="start" dominant-baseline="hanging" style="font-family: Arial, sans-serif; font-size: 12px; fill: rgb(123, 123, 123); font-weight: bold;">Revenues in millions (Adjusted for inflation)</text><g id="labels"><text x="255.95083625974644" y="350.9057377722167" text-anchor="middle" alignment-baseline="middle" style="font-family: Arial, sans-serif; font-size: 10px; fill: black; font-weight: bold;">Tape</text><text x="443.6854949110172" y="267.94759857156663" text-anchor="middle" alignment-baseline="middle" style="font-family: Arial, sans-serif; font-size: 10px; fill: black; font-weight: bold;">Disc</text><text x="665.5282423665258" y="267.2577421538383" text-anchor="middle" alignment-baseline="middle" style="font-family: Arial, sans-serif; font-size: 10px; fill: black; font-weight: bold;">Download</text><text x="529.0024403309327" y="96.22109857736837" text-anchor="middle" alignment-baseline="middle" style="font-family: Arial, sans-serif; font-size: 10px; fill: black; font-weight: bold;">Other</text><text x="785" y="265.1658175267967" text-anchor="end" alignment-baseline="middle" style="font-family: Arial, sans-serif; font-size: 10px; fill: black; font-weight: bold;">Streaming</text><text x="85.31694541991548" y="216.0556880883333" text-anchor="middle" alignment-baseline="middle" style="font-family: Arial, sans-serif; font-size: 10px; fill: black; font-weight: bold;">Vinyl</text></g></g><text x="4" y="4" style="font-family: Arial, sans-serif; font-size: 12px; fill: black; font-weight: bold; dominant-baseline: hanging;"/></g></g></svg>