<svg xmlns="http://www.w3.org/2000/svg" width="805" height="600"><rect width="805" height="600" x="0" y="0" fill="#FFFFFF" id="background"/><g id="viz"><g transform="translate(0,0)"><g transform="translate(10,20)"><g><path fill="#1f77b4" d="M0,249.48000000000002C16.354166666666664,249.48000000000002,16.354166666666664,476.56,32.70833333333333,476.56C49.06249999999999,476.56,49.06249999999999,370.71999999999997,65.41666666666666,370.71999999999997C81.77083333333333,370.71999999999997,81.77083333333333,357.84000000000003,98.125,357.84000000000003C114.47916666666666,357.84000000000003,114.47916666666666,337.40000000000003,130.83333333333331,337.40000000000003C147.1875,337.40000000000003,147.1875,407.40000000000003,163.54166666666669,407.40000000000003C179.89583333333334,407.40000000000003,179.89583333333334,294,196.25,294C212.60416666666669,294,212.60416666666669,262.64,228.95833333333334,262.64C245.3125,262.64,245.3125,441.28000000000003,261.66666666666663,441.28000000000003C278.0208333333333,441.28000000000003,278.0208333333333,356.44000000000005,294.375,356.44000000000005C310.7291666666667,356.44000000000005,310.7291666666667,357.28000000000003,327.08333333333337,357.28000000000003C343.4375,357.28000000000003,343.4375,337.96,359.79166666666663,337.96C376.1458333333333,337.96,376.1458333333333,397.04,392.5,397.04C408.85416666666663,397.04,408.85416666666663,295.40000000000003,425.2083333333333,295.40000000000003C441.5625,295.40000000000003,441.5625,261.24,457.9166666666667,261.24C474.27083333333337,261.24,474.27083333333337,409.08,490.625,409.08C506.97916666666663,409.08,506.97916666666663,400.96,523.3333333333333,400.96C539.6875,400.96,539.6875,361.76,556.0416666666667,361.76C572.3958333333334,361.76,572.3958333333334,383.03999999999996,588.75,383.03999999999996C605.1041666666666,383.03999999999996,605.1041666666666,281.4,621.4583333333333,281.4C637.8125,281.4,637.8125,249.19999999999996,654.1666666666667,249.19999999999996C670.5208333333334,249.19999999999996,670.5208333333334,251.16,686.875,251.16C703.2291666666666,251.16,703.2291666666666,441.28000000000003,719.5833333333333,441.28000000000003C735.9375,441.28000000000003,735.9375,462.56000000000006,752.2916666666667,462.56000000000006C768.6458333333334,462.56000000000006,768.6458333333334,334.88,785,334.88L785,419.44C768.6458333333334,419.44,768.6458333333334,470.4,752.2916666666667,470.4C735.9375,470.4,735.9375,515.76,719.5833333333333,515.76C703.2291666666666,515.76,703.2291666666666,428.12,686.875,428.12C670.5208333333334,428.12,670.5208333333334,328.71999999999997,654.1666666666667,328.71999999999997C637.8125,328.71999999999997,637.8125,377.71999999999997,621.4583333333333,377.71999999999997C605.1041666666666,377.71999999999997,605.1041666666666,474.32,588.75,474.32C572.3958333333334,474.32,572.3958333333334,507.36,556.0416666666667,507.36C539.6875,507.36,539.6875,452.48,523.3333333333333,452.48C506.97916666666663,452.48,506.97916666666663,469,490.625,469C474.27083333333337,469,474.27083333333337,346.91999999999996,457.9166666666667,346.91999999999996C441.5625,346.91999999999996,441.5625,365.40000000000003,425.2083333333333,365.40000000000003C408.85416666666663,365.40000000000003,408.85416666666663,488.32,392.5,488.32C376.1458333333333,488.32,376.1458333333333,437.08,359.79166666666663,437.08C343.4375,437.08,343.4375,483.28,327.08333333333337,483.28C310.7291666666667,483.28,310.7291666666667,457.8,294.375,457.8C278.0208333333333,457.8,278.0208333333333,509.04,261.66666666666663,509.04C245.3125,509.04,245.3125,330.96,228.95833333333334,330.96C212.60416666666669,330.96,212.60416666666669,351.12,196.25,351.12C179.89583333333334,351.12,179.89583333333334,471.8,163.54166666666669,471.8C147.1875,471.8,147.1875,409.08,130.83333333333331,409.08C114.47916666666666,409.08,114.47916666666666,505.68,98.125,505.68C81.77083333333333,505.68,81.77083333333333,492.24,65.41666666666666,492.24C49.06249999999999,492.24,49.06249999999999,492.8,32.70833333333333,492.8C16.354166666666664,492.8,16.354166666666664,318.92,0,318.92Z"><title>Celular</title></path><path fill="#ff7f0e" d="M0,249.48000000000002C16.354166666666664,249.48000000000002,16.354166666666664,378,32.70833333333333,378C49.06249999999999,378,49.06249999999999,313.6,65.41666666666666,313.6C81.77083333333333,313.6,81.77083333333333,330.40000000000003,98.125,330.40000000000003C114.47916666666666,330.40000000000003,114.47916666666666,330.68,130.83333333333331,330.68C147.1875,330.68,147.1875,323.96000000000004,163.54166666666669,323.96000000000004C179.89583333333334,323.96000000000004,179.89583333333334,208.88,196.25,208.88C212.60416666666669,208.88,212.60416666666669,229.04000000000002,228.95833333333334,229.04000000000002C245.3125,229.04000000000002,245.3125,353.36,261.66666666666663,353.36C278.0208333333333,353.36,278.0208333333333,355.88,294.375,355.88C310.7291666666667,355.88,310.7291666666667,357.28000000000003,327.08333333333337,357.28000000000003C343.4375,357.28000000000003,343.4375,309.96,359.79166666666663,309.96C376.1458333333333,309.96,376.1458333333333,285.04,392.5,285.04C408.85416666666663,285.04,408.85416666666663,225.95999999999998,425.2083333333333,225.95999999999998C441.5625,225.95999999999998,441.5625,261.24,457.9166666666667,261.24C474.27083333333337,261.24,474.27083333333337,362.04,490.625,362.04C506.97916666666663,362.04,506.97916666666663,336,523.3333333333333,336C539.6875,336,539.6875,358.40000000000003,556.0416666666667,358.40000000000003C572.3958333333334,358.40000000000003,572.3958333333334,365.12,588.75,365.12C605.1041666666666,365.12,605.1041666666666,196.84000000000003,621.4583333333333,196.84000000000003C637.8125,196.84000000000003,637.8125,231.28000000000003,654.1666666666667,231.28000000000003C670.5208333333334,231.28000000000003,670.5208333333334,175.56,686.875,175.56C703.2291666666666,175.56,703.2291666666666,350.56,719.5833333333333,350.56C735.9375,350.56,735.9375,422.8,752.2916666666667,422.8C768.6458333333334,422.8,768.6458333333334,334.88,785,334.88L785,334.88C768.6458333333334,334.88,768.6458333333334,462.56000000000006,752.2916666666667,462.56000000000006C735.9375,462.56000000000006,735.9375,441.28000000000003,719.5833333333333,441.28000000000003C703.2291666666666,441.28000000000003,703.2291666666666,251.16,686.875,251.16C670.5208333333334,251.16,670.5208333333334,249.19999999999996,654.1666666666667,249.19999999999996C637.8125,249.19999999999996,637.8125,281.4,621.4583333333333,281.4C605.1041666666666,281.4,605.1041666666666,383.03999999999996,588.75,383.03999999999996C572.3958333333334,383.03999999999996,572.3958333333334,361.76,556.0416666666667,361.76C539.6875,361.76,539.6875,400.96,523.3333333333333,400.96C506.97916666666663,400.96,506.97916666666663,409.08,490.625,409.08C474.27083333333337,409.08,474.27083333333337,261.24,457.9166666666667,261.24C441.5625,261.24,441.5625,295.40000000000003,425.2083333333333,295.40000000000003C408.85416666666663,295.40000000000003,408.85416666666663,397.04,392.5,397.04C376.1458333333333,397.04,376.1458333333333,337.96,359.79166666666663,337.96C343.4375,337.96,343.4375,357.28000000000003,327.08333333333337,357.28000000000003C310.7291666666667,357.28000000000003,310.7291666666667,356.44000000000005,294.375,356.44000000000005C278.0208333333333,356.44000000000005,278.0208333333333,441.28000000000003,261.66666666666663,441.28000000000003C245.3125,441.28000000000003,245.3125,262.64,228.95833333333334,262.64C212.60416666666669,262.64,212.60416666666669,294,196.25,294C179.89583333333334,294,179.89583333333334,407.40000000000003,163.54166666666669,407.40000000000003C147.1875,407.40000000000003,147.1875,337.40000000000003,130.83333333333331,337.40000000000003C114.47916666666666,337.40000000000003,114.47916666666666,357.84000000000003,98.125,357.84000000000003C81.77083333333333,357.84000000000003,81.77083333333333,370.71999999999997,65.41666666666666,370.71999999999997C49.06249999999999,370.71999999999997,49.06249999999999,476.56,32.70833333333333,476.56C16.354166666666664,476.56,16.354166666666664,249.48000000000002,0,249.48000000000002Z"><title>PC Personal</title></path><path fill="#2ca02c" d="M0,241.07999999999998C16.354166666666664,241.07999999999998,16.354166666666664,67.2,32.70833333333333,67.2C49.06249999999999,67.2,49.06249999999999,67.75999999999999,65.41666666666666,67.75999999999999C81.77083333333333,67.75999999999999,81.77083333333333,54.319999999999986,98.125,54.319999999999986C114.47916666666666,54.319999999999986,114.47916666666666,150.92,130.83333333333331,150.92C147.1875,150.92,147.1875,88.19999999999999,163.54166666666669,88.19999999999999C179.89583333333334,88.19999999999999,179.89583333333334,208.88,196.25,208.88C212.60416666666669,208.88,212.60416666666669,229.04000000000002,228.95833333333334,229.04000000000002C245.3125,229.04000000000002,245.3125,50.95999999999998,261.66666666666663,50.95999999999998C278.0208333333333,50.95999999999998,278.0208333333333,102.2,294.375,102.2C310.7291666666667,102.2,310.7291666666667,76.72,327.08333333333337,76.72C343.4375,76.72,343.4375,122.92000000000002,359.79166666666663,122.92000000000002C376.1458333333333,122.92000000000002,376.1458333333333,71.68,392.5,71.68C408.85416666666663,71.68,408.85416666666663,194.60000000000002,425.2083333333333,194.60000000000002C441.5625,194.60000000000002,441.5625,213.07999999999998,457.9166666666667,213.07999999999998C474.27083333333337,213.07999999999998,474.27083333333337,90.99999999999999,490.625,90.99999999999999C506.97916666666663,90.99999999999999,506.97916666666663,107.51999999999997,523.3333333333333,107.51999999999997C539.6875,107.51999999999997,539.6875,52.639999999999986,556.0416666666667,52.639999999999986C572.3958333333334,52.639999999999986,572.3958333333334,85.68,588.75,85.68C605.1041666666666,85.68,605.1041666666666,182.28,621.4583333333333,182.28C637.8125,182.28,637.8125,231.28000000000003,654.1666666666667,231.28000000000003C670.5208333333334,231.28000000000003,670.5208333333334,131.88000000000002,686.875,131.88000000000002C703.2291666666666,131.88000000000002,703.2291666666666,44.23999999999998,719.5833333333333,44.23999999999998C735.9375,44.23999999999998,735.9375,89.60000000000002,752.2916666666667,89.60000000000002C768.6458333333334,89.60000000000002,768.6458333333334,140.56,785,140.56L785,334.88C768.6458333333334,334.88,768.6458333333334,422.8,752.2916666666667,422.8C735.9375,422.8,735.9375,350.56,719.5833333333333,350.56C703.2291666666666,350.56,703.2291666666666,175.56,686.875,175.56C670.5208333333334,175.56,670.5208333333334,231.28000000000003,654.1666666666667,231.28000000000003C637.8125,231.28000000000003,637.8125,196.84000000000003,621.4583333333333,196.84000000000003C605.1041666666666,196.84000000000003,605.1041666666666,365.12,588.75,365.12C572.3958333333334,365.12,572.3958333333334,358.40000000000003,556.0416666666667,358.40000000000003C539.6875,358.40000000000003,539.6875,336,523.3333333333333,336C506.97916666666663,336,506.97916666666663,362.04,490.625,362.04C474.27083333333337,362.04,474.27083333333337,261.24,457.9166666666667,261.24C441.5625,261.24,441.5625,225.95999999999998,425.2083333333333,225.95999999999998C408.85416666666663,225.95999999999998,408.85416666666663,285.04,392.5,285.04C376.1458333333333,285.04,376.1458333333333,309.96,359.79166666666663,309.96C343.4375,309.96,343.4375,357.28000000000003,327.08333333333337,357.28000000000003C310.7291666666667,357.28000000000003,310.7291666666667,355.88,294.375,355.88C278.0208333333333,355.88,278.0208333333333,353.36,261.66666666666663,353.36C245.3125,353.36,245.3125,229.04000000000002,228.95833333333334,229.04000000000002C212.60416666666669,229.04000000000002,212.60416666666669,208.88,196.25,208.88C179.89583333333334,208.88,179.89583333333334,323.96000000000004,163.54166666666669,323.96000000000004C147.1875,323.96000000000004,147.1875,330.68,130.83333333333331,330.68C114.47916666666666,330.68,114.47916666666666,330.40000000000003,98.125,330.40000000000003C81.77083333333333,330.40000000000003,81.77083333333333,313.6,65.41666666666666,313.6C49.06249999999999,313.6,49.06249999999999,378,32.70833333333333,378C16.354166666666664,378,16.354166666666664,249.48000000000002,0,249.48000000000002Z"><title>PC Trabajo</title></path></g><g id="xAxis" transform="translate(0,560)" fill="none" font-size="10" font-family="sans-serif" text-anchor="middle"><path class="domain" stroke="currentColor" d="M0,0H785"/><g class="tick" opacity="1" transform="translate(32.70833333333333,0)"><line stroke="currentColor" y2="6"/><text fill="currentColor" y="9" dy="0.71em">Mon 13</text></g><g class="tick" opacity="1" transform="translate(98.125,0)"><line stroke="currentColor" y2="6"/><text fill="currentColor" y="9" dy="0.71em">Wed 15</text></g><g class="tick" opacity="1" transform="translate(163.54166666666669,0)"><line stroke="currentColor" y2="6"/><text fill="currentColor" y="9" dy="0.71em">Fri 17</text></g><g class="tick" opacity="1" transform="translate(228.95833333333334,0)"><line stroke="currentColor" y2="6"/><text fill="currentColor" y="9" dy="0.71em">Apr 19</text></g><g class="tick" opacity="1" transform="translate(294.375,0)"><line stroke="currentColor" y2="6"/><text fill="currentColor" y="9" dy="0.71em">Tue 21</text></g><g class="tick" opacity="1" transform="translate(359.79166666666663,0)"><line stroke="currentColor" y2="6"/><text fill="currentColor" y="9" dy="0.71em">Thu 23</text></g><g class="tick" opacity="1" transform="translate(425.2083333333333,0)"><line stroke="currentColor" y2="6"/><text fill="currentColor" y="9" dy="0.71em">Sat 25</text></g><g class="tick" opacity="1" transform="translate(490.625,0)"><line stroke="currentColor" y2="6"/><text fill="currentColor" y="9" dy="0.71em">Mon 27</text></g><g class="tick" opacity="1" transform="translate(556.0416666666667,0)"><line stroke="currentColor" y2="6"/><text fill="currentColor" y="9" dy="0.71em">Wed 29</text></g><g class="tick" opacity="1" transform="translate(621.4583333333333,0)"><line stroke="currentColor" y2="6"/><text fill="currentColor" y="9" dy="0.71em">May</text></g><g class="tick" opacity="1" transform="translate(686.875,0)"><line stroke="currentColor" y2="6"/><text fill="currentColor" y="9" dy="0.71em">May 03</text></g><g class="tick" opacity="1" transform="translate(752.2916666666667,0)"><line stroke="currentColor" y2="6"/><text fill="currentColor" y="9" dy="0.71em">Tue 05</text></g></g><text y="556" x="785" text-anchor="end" style="font-family: Arial, sans-serif; font-size: 12px; fill: rgb(123, 123, 123); font-weight: bold;">Fecha</text><text x="4" text-anchor="start" dominant-baseline="hanging" style="font-family: Arial, sans-serif; font-size: 12px; fill: rgb(123, 123, 123); font-weight: bold;">Tiempo en Pantalla</text><g id="labels"><text dy="0.5ex" class="label"><textPath xmlns:xlink="http://www.w3.org/1999/xlink" xlink:href="#path-0-0" startOffset="84%" alignment-baseline="middle" text-anchor="middle" style="font-family: Arial, sans-serif; font-size: 10px; fill: black; font-weight: bold;">Celular</textPath></text><text dy="0.5ex" class="label"><textPath xmlns:xlink="http://www.w3.org/1999/xlink" xlink:href="#path-0-1" startOffset="48%" alignment-baseline="middle" text-anchor="middle" style="font-family: Arial, sans-serif; font-size: 10px; fill: black; font-weight: bold;">PC Personal</textPath></text><text dy="0.5ex" class="label"><textPath xmlns:xlink="http://www.w3.org/1999/xlink" xlink:href="#path-0-2" startOffset="92%" alignment-baseline="middle" text-anchor="end" style="font-family: Arial, sans-serif; font-size: 10px; fill: black; font-weight: bold;">PC Trabajo</textPath></text></g></g><text x="4" y="4" style="font-family: Arial, sans-serif; font-size: 12px; fill: black; font-weight: bold; dominant-baseline: hanging;"/></g></g><defs><path id="path-0-0" d="M0,284.20000000000005C16.354166666666664,284.20000000000005,16.354166666666664,484.67999999999995,32.70833333333333,484.67999999999995C49.06249999999999,484.67999999999995,49.06249999999999,431.47999999999996,65.41666666666666,431.47999999999996C81.77083333333333,431.47999999999996,81.77083333333333,431.76,98.125,431.76C114.47916666666666,431.76,114.47916666666666,373.24,130.83333333333331,373.24C147.1875,373.24,147.1875,439.6,163.54166666666669,439.6C179.89583333333334,439.6,179.89583333333334,322.56000000000006,196.25,322.56000000000006C212.60416666666669,322.56000000000006,212.60416666666669,296.8,228.95833333333334,296.8C245.3125,296.8,245.3125,475.16,261.66666666666663,475.16C278.0208333333333,475.16,278.0208333333333,407.12,294.375,407.12C310.7291666666667,407.12,310.7291666666667,420.28,327.08333333333337,420.28C343.4375,420.28,343.4375,387.52,359.79166666666663,387.52C376.1458333333333,387.52,376.1458333333333,442.68,392.5,442.68C408.85416666666663,442.68,408.85416666666663,330.40000000000003,425.2083333333333,330.40000000000003C441.5625,330.40000000000003,441.5625,304.08,457.9166666666667,304.08C474.27083333333337,304.08,474.27083333333337,439.04,490.625,439.04C506.97916666666663,439.04,506.97916666666663,426.72,523.3333333333333,426.72C539.6875,426.72,539.6875,434.56,556.0416666666667,434.56C572.3958333333334,434.56,572.3958333333334,428.68000000000006,588.75,428.68000000000006C605.1041666666666,428.68000000000006,605.1041666666666,329.56,621.4583333333333,329.56C637.8125,329.56,637.8125,288.96000000000004,654.1666666666667,288.96000000000004C670.5208333333334,288.96000000000004,670.5208333333334,339.64000000000004,686.875,339.64000000000004C703.2291666666666,339.64000000000004,703.2291666666666,478.52000000000004,719.5833333333333,478.52000000000004C735.9375,478.52000000000004,735.9375,466.47999999999996,752.2916666666667,466.47999999999996C768.6458333333334,466.47999999999996,768.6458333333334,377.15999999999997,785,377.15999999999997"/><path id="path-0-1" d="M0,249.48000000000002C16.354166666666664,249.48000000000002,16.354166666666664,427.28000000000003,32.70833333333333,427.28000000000003C49.06249999999999,427.28000000000003,49.06249999999999,342.15999999999997,65.41666666666666,342.15999999999997C81.77083333333333,342.15999999999997,81.77083333333333,344.12,98.125,344.12C114.47916666666666,344.12,114.47916666666666,334.04,130.83333333333331,334.04C147.1875,334.04,147.1875,365.68,163.54166666666669,365.68C179.89583333333334,365.68,179.89583333333334,251.43999999999997,196.25,251.43999999999997C212.60416666666669,251.43999999999997,212.60416666666669,245.83999999999997,228.95833333333334,245.83999999999997C245.3125,245.83999999999997,245.3125,397.32,261.66666666666663,397.32C278.0208333333333,397.32,278.0208333333333,356.16,294.375,356.16C310.7291666666667,356.16,310.7291666666667,357.28000000000003,327.08333333333337,357.28000000000003C343.4375,357.28000000000003,343.4375,323.96000000000004,359.79166666666663,323.96000000000004C376.1458333333333,323.96000000000004,376.1458333333333,341.03999999999996,392.5,341.03999999999996C408.85416666666663,341.03999999999996,408.85416666666663,260.68,425.2083333333333,260.68C441.5625,260.68,441.5625,261.24,457.9166666666667,261.24C474.27083333333337,261.24,474.27083333333337,385.56,490.625,385.56C506.97916666666663,385.56,506.97916666666663,368.47999999999996,523.3333333333333,368.47999999999996C539.6875,368.47999999999996,539.6875,360.08,556.0416666666667,360.08C572.3958333333334,360.08,572.3958333333334,374.08,588.75,374.08C605.1041666666666,374.08,605.1041666666666,239.12000000000003,621.4583333333333,239.12000000000003C637.8125,239.12000000000003,637.8125,240.24000000000004,654.1666666666667,240.24000000000004C670.5208333333334,240.24000000000004,670.5208333333334,213.36,686.875,213.36C703.2291666666666,213.36,703.2291666666666,395.92,719.5833333333333,395.92C735.9375,395.92,735.9375,442.68,752.2916666666667,442.68C768.6458333333334,442.68,768.6458333333334,334.88,785,334.88"/><path id="path-0-2" d="M0,245.27999999999997C16.354166666666664,245.27999999999997,16.354166666666664,222.59999999999997,32.70833333333333,222.59999999999997C49.06249999999999,222.59999999999997,49.06249999999999,190.68,65.41666666666666,190.68C81.77083333333333,190.68,81.77083333333333,192.36,98.125,192.36C114.47916666666666,192.36,114.47916666666666,240.80000000000004,130.83333333333331,240.80000000000004C147.1875,240.80000000000004,147.1875,206.07999999999998,163.54166666666669,206.07999999999998C179.89583333333334,206.07999999999998,179.89583333333334,208.88,196.25,208.88C212.60416666666669,208.88,212.60416666666669,229.04000000000002,228.95833333333334,229.04000000000002C245.3125,229.04000000000002,245.3125,202.16,261.66666666666663,202.16C278.0208333333333,202.16,278.0208333333333,229.04000000000002,294.375,229.04000000000002C310.7291666666667,229.04000000000002,310.7291666666667,216.99999999999997,327.08333333333337,216.99999999999997C343.4375,216.99999999999997,343.4375,216.43999999999997,359.79166666666663,216.43999999999997C376.1458333333333,216.43999999999997,376.1458333333333,178.36,392.5,178.36C408.85416666666663,178.36,408.85416666666663,210.27999999999997,425.2083333333333,210.27999999999997C441.5625,210.27999999999997,441.5625,237.16,457.9166666666667,237.16C474.27083333333337,237.16,474.27083333333337,226.51999999999998,490.625,226.51999999999998C506.97916666666663,226.51999999999998,506.97916666666663,221.76000000000002,523.3333333333333,221.76000000000002C539.6875,221.76000000000002,539.6875,205.51999999999998,556.0416666666667,205.51999999999998C572.3958333333334,205.51999999999998,572.3958333333334,225.39999999999998,588.75,225.39999999999998C605.1041666666666,225.39999999999998,605.1041666666666,189.56,621.4583333333333,189.56C637.8125,189.56,637.8125,231.28000000000003,654.1666666666667,231.28000000000003C670.5208333333334,231.28000000000003,670.5208333333334,153.71999999999997,686.875,153.71999999999997C703.2291666666666,153.71999999999997,703.2291666666666,197.40000000000003,719.5833333333333,197.40000000000003C735.9375,197.40000000000003,735.9375,256.2,752.2916666666667,256.2C768.6458333333334,256.2,768.6458333333334,237.72,785,237.72"/></defs></svg>